<?xml version="1.0" encoding="utf-8"?>
<!-- Generator: Adobe Illustrator 16.0.0, SVG Export Plug-In . SVG Version: 6.00 Build 0)  -->
<!DOCTYPE svg PUBLIC "-//W3C//DTD SVG 1.1//EN" "http://www.w3.org/Graphics/SVG/1.1/DTD/svg11.dtd">
<svg version="1.1" id="Calque_1" xmlns="http://www.w3.org/2000/svg" xmlns:xlink="http://www.w3.org/1999/xlink" x="0px" y="0px"
	 width="265.833px" height="98.093px" viewBox="0 0 265.833 98.093" enable-background="new 0 0 265.833 98.093"
	 xml:space="preserve">
<g>
	<g>
		<path fill="#232B54" d="M1.761,46.132v-4.579h19.651c2.452,0,3.822-1.37,3.822-3.426c0-2.235-1.37-3.39-3.822-3.39H9.369
			c-4.94,0-8.004-3.136-8.004-7.462c0-4.219,2.848-7.356,8.076-7.356h18.821v4.579H9.44c-2.091,0-3.317,1.226-3.317,3.209
			s1.262,3.173,3.281,3.173h12.007c5.3,0,8.149,2.487,8.149,7.571c0,4.4-2.669,7.681-8.149,7.681H1.761z"/>
		<path fill="#232B54" d="M65.112,46.132L60.1,27.708l-7.427,17.055c-0.505,1.117-1.227,1.73-2.344,1.73
			c-1.082,0-1.875-0.613-2.344-1.73l-7.392-17.055l-5.011,18.425h-4.508l6.743-24.663c0.325-1.262,1.046-1.875,2.272-1.875
			c0.973,0,1.875,0.541,2.307,1.551l8.077,18.533l8.077-18.533c0.432-1.01,1.226-1.551,2.199-1.551c1.118,0,1.839,0.613,2.199,1.875
			l6.707,24.663H65.112z"/>
		<path fill="#232B54" d="M145.865,46.132l-6.635-7.283h-9.807v-4.039h10.924c3.281,0,5.013-1.875,5.013-5.264
			c0-3.39-1.875-5.048-5.013-5.048h-14.278v21.634h-4.543V19.919h18.821c5.986,0,9.52,3.714,9.52,9.555
			c0,4.326-2.02,7.391-5.408,8.689l7.896,7.969H145.865z"/>
		<polygon fill="#232B54" points="162.559,46.132 162.559,24.499 152.607,24.499 152.607,19.919 177.089,19.919 177.089,24.499 
			167.138,24.499 167.138,46.132 		"/>
		<path fill="#749B50" d="M58.569,76.762V55.119h19.321v3.78H62.32V72.98h15.6v3.782H58.569z M65.089,64.169h11.998v3.186H65.089
			V64.169z"/>
		<path fill="#749B50" d="M91.048,76.762c-6.043,0-10.509-4.764-10.509-11.045c0-6.37,4.466-10.598,10.509-10.598h11.73V58.9h-11.73
			c-3.87,0-6.729,2.887-6.729,6.996c0,4.079,2.829,7.085,6.729,7.085h11.73v3.781H91.048z"/>
		<path fill="#749B50" d="M115.727,76.761c-6.043,0-10.508-4.763-10.508-11.045c0-6.37,4.465-10.597,10.508-10.597h5.27
			c6.252,0,10.599,4.316,10.599,10.597c0,6.282-4.437,11.045-10.599,11.045H115.727z M120.997,72.98
			c3.989,0,6.817-3.006,6.817-7.085c0-4.078-2.828-6.996-6.817-6.996h-5.27c-3.87,0-6.727,2.888-6.727,6.996
			c0,4.079,2.828,7.085,6.727,7.085H120.997z"/>
		<path fill="#232B54" d="M152.24,66.374c0.42-0.472,0.866-0.799,1.338-0.983c0.473-0.183,0.865-0.236,1.182-0.158
			c0.313,0.079,0.483,0.289,0.51,0.63c0.027,0.342-0.196,0.826-0.669,1.455c-0.471,0.63-1.193,1.495-2.163,2.597
			c-0.971,1.102-2.098,2.191-3.384,3.266c-1.286,1.076-2.674,1.98-4.169,2.714c-1.496,0.736-2.951,1.023-4.368,0.866
			c-1.626-0.158-2.924-0.774-3.896-1.849c-0.971-1.075-1.639-2.373-2.005-3.895c-0.366-1.521-0.406-3.16-0.118-4.918
			c0.288-1.757,0.878-3.37,1.77-4.839c0.892-1.468,2.086-2.688,3.58-3.658c1.496-0.971,3.291-1.457,5.39-1.457
			c1.47,0,2.638,0.355,3.502,1.063c0.865,0.708,1.416,1.573,1.652,2.597c0.237,1.022,0.197,2.085-0.118,3.186
			c-0.313,1.102-0.918,2.046-1.809,2.832c-0.63,0.526-1.247,0.748-1.851,0.669c-0.603-0.078-1.113-0.287-1.534-0.629
			c-0.42-0.341-0.722-0.734-0.903-1.18c-0.186-0.446-0.146-0.774,0.118-0.984c0.838-0.734,1.416-1.56,1.729-2.478
			c0.315-0.917,0.185-1.614-0.393-2.085c-0.42-0.315-0.905-0.355-1.455-0.118c-0.551,0.236-1.077,0.669-1.575,1.297
			c-0.499,0.63-0.97,1.391-1.416,2.283s-0.747,1.784-0.904,2.674c-0.314,2.153-0.211,3.844,0.314,5.076
			c0.523,1.233,1.441,1.823,2.754,1.77c0.838,0,1.678-0.182,2.518-0.551c0.84-0.366,1.64-0.838,2.399-1.416
			c0.76-0.577,1.469-1.206,2.125-1.888C151.047,67.582,151.663,66.952,152.24,66.374"/>
		<path fill="#232B54" d="M164.515,55.988c1.205,0,2.202,0.275,2.989,0.826s1.377,1.298,1.771,2.242
			c0.393,0.945,0.55,2.046,0.471,3.305c-0.078,1.259-0.381,2.597-0.904,4.013l-0.473,1.101c1.206,0.316,2.334-0.051,3.384-1.101
			c0.576-0.577,1.088-0.944,1.534-1.102c0.446-0.157,0.787-0.157,1.024,0c0.234,0.158,0.353,0.421,0.353,0.787
			c0,0.368-0.184,0.787-0.551,1.259c-0.735,0.997-1.731,1.759-2.99,2.282c-1.259,0.525-2.545,0.656-3.854,0.394
			c-1.051,1.994-2.334,3.619-3.856,4.878c-1.521,1.258-3.225,1.888-5.114,1.888c-1.207,0-2.281-0.275-3.226-0.826
			c-0.944-0.551-1.692-1.298-2.243-2.242s-0.89-2.046-1.021-3.305c-0.132-1.26,0.013-2.596,0.432-4.013
			c0.419-1.416,1.022-2.754,1.81-4.013c0.787-1.259,1.719-2.36,2.793-3.305c1.075-0.944,2.255-1.691,3.541-2.242
			C161.668,56.264,163.045,55.988,164.515,55.988 M163.963,68.105c-0.472-0.576-0.734-1.259-0.786-2.046
			c-0.054-0.787,0.078-1.52,0.393-2.203c0.315-0.681,0.76-1.245,1.338-1.691c0.577-0.446,1.259-0.617,2.046-0.512
			c0.052-1.573-0.471-2.518-1.573-2.832c-0.893-0.209-1.955,0.328-3.188,1.612c-1.232,1.286-2.374,3.266-3.422,5.941
			c-0.683,1.836-1.076,3.475-1.181,4.918c-0.105,1.443,0.209,2.295,0.944,2.557c1.049,0.367,2.111,0.027,3.188-1.023
			c1.073-1.048,2.031-2.386,2.871-4.013L163.963,68.105z"/>
		<path fill="#232B54" d="M171.752,66.374c0.839-1.102,1.652-2.254,2.439-3.462c0.787-1.206,1.468-2.333,2.046-3.383
			c0.681-1.206,1.337-2.386,1.967-3.541h5.902c-0.21,0.84-0.669,2.295-1.377,4.367c-0.708,2.073-1.509,4.237-2.401,6.492
			c1.103-1.521,2.27-3.056,3.502-4.604c1.232-1.546,2.465-2.897,3.698-4.052c1.232-1.153,2.426-2.032,3.58-2.635
			s2.204-0.748,3.147-0.433c0.63,0.21,0.956,0.774,0.983,1.691c0.026,0.918-0.118,1.995-0.432,3.226
			c-0.316,1.233-0.723,2.532-1.221,3.896c-0.499,1.364-0.958,2.609-1.377,3.737c-0.421,1.129-0.722,2.072-0.904,2.833
			c-0.186,0.761-0.118,1.14,0.196,1.14c0.473,0,0.995-0.157,1.573-0.472c0.577-0.315,1.167-0.734,1.771-1.259
			c0.602-0.523,1.219-1.102,1.848-1.73c0.63-0.63,1.26-1.233,1.889-1.811c0.63-0.576,1.167-0.943,1.613-1.102
			c0.446-0.157,0.787-0.157,1.023,0c0.235,0.159,0.341,0.421,0.314,0.788c-0.027,0.368-0.224,0.787-0.591,1.258
			c-1.364,1.785-2.754,3.358-4.17,4.722c-1.258,1.207-2.663,2.295-4.209,3.265c-1.548,0.971-3.161,1.456-4.839,1.456
			c-1.26,0-2.113-0.341-2.558-1.023c-0.445-0.681-0.644-1.535-0.591-2.557c0.052-1.023,0.276-2.137,0.669-3.344
			c0.395-1.206,0.799-2.321,1.22-3.345c0.42-1.022,0.747-1.875,0.983-2.556c0.237-0.682,0.223-1.024-0.039-1.024
			c-0.263,0-0.696,0.316-1.299,0.944c-0.603,0.63-1.285,1.43-2.045,2.401c-0.761,0.971-1.562,2.033-2.4,3.186
			c-0.84,1.155-1.626,2.243-2.359,3.266c-0.736,1.022-1.353,1.901-1.851,2.636c-0.499,0.735-0.8,1.179-0.903,1.337v0.079h-4.801
			c0.576-1.311,1.221-3.042,1.929-5.194c0.708-2.15,1.377-4.327,2.007-6.53l-1.575,2.281c-0.578,0.736-1.089,1.195-1.534,1.377
			c-0.446,0.185-0.801,0.185-1.062,0c-0.263-0.182-0.38-0.498-0.354-0.944C171.19,67.307,171.387,66.847,171.752,66.374"/>
		<path fill="#232B54" d="M214.398,52.605h-4.957l-4.8,14.084c-0.42,1.259-0.801,2.399-1.14,3.423
			c-0.342,1.022-0.355,1.534-0.041,1.534c0.473,0,0.997-0.157,1.575-0.473c0.575-0.314,1.18-0.733,1.809-1.258
			c0.63-0.524,1.259-1.102,1.889-1.731c0.629-0.63,1.231-1.232,1.811-1.81c0.629-0.577,1.18-0.944,1.651-1.102
			c0.473-0.157,0.826-0.157,1.063,0c0.236,0.158,0.328,0.421,0.276,0.787c-0.054,0.368-0.265,0.787-0.631,1.259
			c-1.363,1.784-2.754,3.357-4.17,4.722c-1.259,1.207-2.663,2.295-4.21,3.264c-1.548,0.972-3.161,1.456-4.839,1.456
			c-1.206,0-2.032-0.327-2.478-0.983c-0.446-0.655-0.643-1.468-0.59-2.44c0.053-0.969,0.262-2.032,0.629-3.186
			c0.367-1.153,0.761-2.255,1.18-3.305c0.629-1.783,1.416-3.973,2.361-6.57c0.943-2.597,1.86-5.153,2.754-7.671H189.77l1.338-3.698
			h13.77c0.262-0.839,0.523-1.6,0.788-2.282c0.261-0.681,0.497-1.286,0.708-1.81c0.209-0.577,0.393-1.102,0.55-1.574h5.665
			c-0.157,0.525-0.341,1.076-0.55,1.652c-0.315,1.051-0.762,2.388-1.338,4.014h4.957L214.398,52.605z"/>
		<path fill="#232B54" d="M210.542,66.374c0.944-1.206,1.731-2.32,2.36-3.344c0.63-1.022,1.154-1.9,1.575-2.635
			c-0.788-0.472-1.299-1.127-1.536-1.967c-0.235-0.839,0.013-1.862,0.748-3.07c0.577-1.048,1.259-1.809,2.046-2.281
			c0.786-0.472,1.482-0.63,2.085-0.472c0.603,0.158,1.023,0.618,1.259,1.376c0.236,0.762,0.118,1.85-0.353,3.266
			c0.942,0.106,1.664,0.118,2.163,0.039c0.498-0.078,1.009-0.248,1.533-0.511c0.209-0.104,0.498-0.118,0.866-0.04
			c0.366,0.079,0.708,0.224,1.023,0.434c0.313,0.21,0.522,0.485,0.629,0.826c0.104,0.342,0.052,0.722-0.157,1.141
			c-0.525,0.892-1.09,2.098-1.691,3.619c-0.604,1.522-1.103,3.004-1.495,4.445c-0.394,1.444-0.644,2.69-0.747,3.738
			c-0.106,1.05,0.079,1.574,0.55,1.574c0.472,0,1.022-0.209,1.653-0.629c0.63-0.42,1.284-0.945,1.967-1.574
			c0.681-0.63,1.362-1.298,2.045-2.007c0.682-0.708,1.338-1.35,1.967-1.928c0.577-0.576,1.102-0.943,1.574-1.102
			c0.472-0.157,0.827-0.157,1.063,0c0.235,0.159,0.34,0.421,0.314,0.788c-0.027,0.368-0.223,0.787-0.589,1.258
			c-1.05,1.417-2.179,2.729-3.384,3.935c-1.051,1.05-2.218,2.085-3.502,3.108c-1.285,1.023-2.61,1.77-3.974,2.242
			c-0.735,0.262-1.495,0.328-2.282,0.197c-0.787-0.13-1.456-0.445-2.007-0.945c-0.551-0.497-0.932-1.206-1.141-2.124
			c-0.209-0.917-0.105-2.058,0.314-3.422c0.367-1.102,0.813-2.216,1.338-3.344s1.023-2.164,1.495-3.109
			c0.474-0.944,0.84-1.704,1.103-2.281c0.261-0.577,0.288-0.839,0.079-0.787c-0.945,0.263-1.811,0.342-2.598,0.236
			c-0.473,0.893-1.063,1.941-1.771,3.147c-0.708,1.208-1.429,2.257-2.164,3.147c-0.578,0.736-1.089,1.195-1.534,1.377
			c-0.446,0.185-0.787,0.185-1.021,0c-0.237-0.182-0.355-0.498-0.355-0.944C209.992,67.307,210.177,66.847,210.542,66.374"/>
		<path fill="#232B54" d="M241.307,55.988c1.206,0,2.202,0.275,2.989,0.826s1.377,1.298,1.771,2.242
			c0.393,0.945,0.55,2.046,0.471,3.305c-0.078,1.259-0.381,2.597-0.904,4.013l-0.473,1.101c1.206,0.316,2.334-0.051,3.384-1.101
			c0.576-0.577,1.088-0.944,1.534-1.102c0.446-0.157,0.787-0.157,1.024,0c0.234,0.158,0.353,0.421,0.353,0.787
			c0,0.368-0.184,0.787-0.551,1.259c-0.735,0.997-1.731,1.759-2.99,2.282c-1.259,0.525-2.545,0.656-3.854,0.394
			c-1.051,1.994-2.334,3.619-3.856,4.878c-1.521,1.258-3.225,1.888-5.114,1.888c-1.207,0-2.281-0.275-3.226-0.826
			c-0.944-0.551-1.692-1.298-2.243-2.242s-0.89-2.046-1.021-3.305c-0.132-1.26,0.013-2.596,0.432-4.013
			c0.419-1.416,1.022-2.754,1.81-4.013c0.787-1.259,1.719-2.36,2.793-3.305c1.075-0.944,2.256-1.691,3.541-2.242
			S239.837,55.988,241.307,55.988 M240.755,68.105c-0.472-0.576-0.734-1.259-0.786-2.046c-0.054-0.787,0.078-1.52,0.393-2.203
			c0.315-0.681,0.76-1.245,1.338-1.691c0.577-0.446,1.259-0.617,2.046-0.512c0.052-1.573-0.471-2.518-1.573-2.832
			c-0.893-0.209-1.955,0.328-3.188,1.612c-1.232,1.286-2.374,3.266-3.422,5.941c-0.683,1.836-1.076,3.475-1.181,4.918
			c-0.105,1.443,0.209,2.295,0.944,2.557c1.049,0.367,2.111,0.027,3.188-1.023c1.073-1.048,2.031-2.386,2.871-4.013L240.755,68.105z
			"/>
		<path fill="#232B54" d="M254.604,66.69c-0.421,1.258-0.802,2.399-1.142,3.422c-0.342,1.023-0.354,1.535-0.04,1.535
			c0.474,0,0.996-0.158,1.574-0.473c0.576-0.314,1.181-0.733,1.81-1.259c0.631-0.523,1.26-1.101,1.89-1.73
			c0.628-0.63,1.23-1.233,1.809-1.811c0.63-0.576,1.182-0.943,1.652-1.101c0.472-0.158,0.827-0.158,1.063,0
			c0.235,0.158,0.327,0.421,0.275,0.787c-0.052,0.368-0.263,0.787-0.63,1.259c-1.364,1.784-2.753,3.357-4.169,4.721
			c-1.259,1.207-2.664,2.295-4.21,3.265c-1.548,0.972-3.162,1.456-4.839,1.456c-1.206,0-2.033-0.327-2.479-0.984
			c-0.445-0.655-0.641-1.467-0.59-2.439c0.053-0.97,0.263-2.032,0.629-3.186c0.368-1.154,0.762-2.255,1.181-3.305
			c0.419-1.206,0.878-2.53,1.377-3.974c0.498-1.442,1.022-2.911,1.573-4.406s1.088-2.99,1.613-4.485
			c0.523-1.495,1.049-2.898,1.574-4.209c1.207-2.991,2.701-5.076,4.484-6.256c1.783-1.18,3.594-1.271,5.431-0.276
			c1.101,0.63,1.702,1.523,1.809,2.676c0.105,1.154-0.25,2.558-1.062,4.21c-0.814,1.652-2.021,3.54-3.619,5.664
			c-1.602,2.125-3.529,4.499-5.784,7.121c-0.263,0.736-0.499,1.43-0.709,2.085C254.865,65.654,254.708,66.217,254.604,66.69
			 M263.258,46.547c-0.366-0.21-0.747-0.105-1.141,0.314c-0.394,0.42-0.8,1.063-1.219,1.928c-0.421,0.865-0.854,1.928-1.3,3.187
			c-0.445,1.258-0.932,2.649-1.454,4.17c0.786-1.102,1.559-2.19,2.32-3.265c0.761-1.075,1.39-2.059,1.889-2.951
			c0.498-0.892,0.852-1.639,1.062-2.242C263.625,47.085,263.573,46.704,263.258,46.547"/>
		<path fill="#232B54" d="M94.722,26.407L82.789,37.52v10.278c0,0.645,0.523,1.169,1.169,1.169h21.699
			c0.645,0,1.169-0.524,1.169-1.169v-9.834L94.722,26.407z M93.157,40.375c0,0.645-0.523,1.169-1.169,1.169h-2.905
			c-0.645,0-1.168-0.524-1.168-1.169v-2.905c0-0.645,0.523-1.169,1.168-1.169h2.905c0.646,0,1.169,0.524,1.169,1.169V40.375z
			 M101.7,40.375c0,0.645-0.523,1.169-1.169,1.169h-2.905c-0.645,0-1.168-0.524-1.168-1.169v-2.905c0-0.645,0.523-1.169,1.168-1.169
			h2.905c0.646,0,1.169,0.524,1.169,1.169V40.375z"/>
		<path fill="#232B54" d="M117.53,46.055l-22.722-21.89l-22.723,21.89l-1.391-4.751l23.053-22.208c0.636-0.611,1.485-0.611,2.121,0
			l23.04,22.169L117.53,46.055z"/>
		<polygon fill="#232B54" points="109.527,20.467 103.907,20.467 103.907,26.93 109.527,32.346 		"/>
		<path fill="#749B50" d="M106.084,17.226c-1.782-2.708-2.931-6.221-6.066-8.038c-1.523-0.997-2.981-1.678-4.843-2.007
			c7.152,3.191,9.425,9.585,9.376,10.845c-2.275,4.482-11.35-0.005-13.454-5.474c-2.147-5.583-2.917-8.468-6.504-9.839
			c4.417-2.042,12.68-0.553,16.979,2.078c2.957,1.726,4.648,4.614,4.897,8.122C106.552,14.082,106.028,16.201,106.084,17.226"/>
		<path fill="#749B50" d="M107.706,15.128c0.19-2.697,1.491-4.917,3.765-6.245c3.305-2.024,9.658-3.168,13.055-1.598
			c-2.758,1.053-3.35,3.272-5.001,7.565c-1.617,4.205-8.596,7.656-10.344,4.209c-0.039-0.969,1.709-5.885,7.208-8.338
			c-1.432,0.252-2.552,0.775-3.723,1.543c-2.412,1.397-3.295,4.098-4.665,6.18C108.043,17.656,107.641,16.027,107.706,15.128"/>
	</g>
	<g>
		<defs>
			<polygon id="SVGID_1_" points="52.778,69.09 54.307,68.506 59.481,79.52 57.954,80.106 60.171,84.827 58.644,85.414 
				60.123,88.562 47.895,93.255 46.416,90.107 44.889,90.694 43.409,87.551 41.88,88.137 40.403,84.993 38.875,85.58 37.397,82.435 
				35.87,83.022 35.126,81.44 33.6,82.027 32.121,78.88 35.175,77.707 35.916,79.28 37.443,78.694 38.184,80.268 39.627,79.65 
				31.583,62.373 34.638,61.2 41.291,75.36 42.742,74.774 39.861,68.48 42.922,67.306 45.879,73.599 47.346,72.96 45.189,68.292 
				48.246,67.118 51.202,73.412 52.651,72.827 50.513,68.104 52.04,67.518 			"/>
		</defs>
		<clipPath id="SVGID_2_">
			<use xlink:href="#SVGID_1_"  overflow="visible"/>
		</clipPath>
		
			<linearGradient id="SVGID_3_" gradientUnits="userSpaceOnUse" x1="-161.6948" y1="565.9756" x2="-160.695" y2="565.9756" gradientTransform="matrix(9.8057 10.5876 10.5876 -9.8057 -4359.9165 7340.0688)">
			<stop  offset="0" style="stop-color:#CDCCCC"/>
			<stop  offset="0.2873" style="stop-color:#DFDEDE"/>
			<stop  offset="0.7384" style="stop-color:#F6F6F6"/>
			<stop  offset="1" style="stop-color:#FFFFFF"/>
		</linearGradient>
		<polygon clip-path="url(#SVGID_2_)" fill="url(#SVGID_3_)" points="46.972,46.947 76.152,78.455 44.783,107.508 15.602,76 		"/>
	</g>
	<g>
		<defs>
			<polygon id="SVGID_4_" points="31.583,62.373 39.627,79.65 38.184,80.268 37.443,78.693 35.916,79.28 35.175,77.707 
				32.121,78.88 33.6,82.027 35.126,81.441 35.87,83.022 37.397,82.435 38.875,85.58 40.403,84.993 41.88,88.137 43.409,87.55 
				44.889,90.694 46.417,90.107 47.895,93.255 60.123,88.562 58.644,85.414 60.171,84.828 57.954,80.106 59.481,79.52 
				54.307,68.506 52.778,69.09 52.041,67.518 50.513,68.105 52.651,72.827 51.202,73.412 48.246,67.118 45.189,68.292 
				47.346,72.959 45.879,73.599 42.923,67.306 39.861,68.48 42.742,74.774 41.291,75.361 34.638,61.2 			"/>
		</defs>
		<clipPath id="SVGID_5_">
			<use xlink:href="#SVGID_4_"  overflow="visible"/>
		</clipPath>
		<g clip-path="url(#SVGID_5_)">
			<g>
				<defs>
					<rect id="SVGID_6_" x="20.164" y="54.385" width="39.202" height="33.751"/>
				</defs>
				<clipPath id="SVGID_7_">
					<use xlink:href="#SVGID_6_"  overflow="visible"/>
				</clipPath>
				<g clip-path="url(#SVGID_7_)">
					<defs>
						<path id="SVGID_8_" d="M57.692,59.857c4.37,6.871-0.114,17.546-10.015,23.844c-9.901,6.297-21.471,5.833-25.84-1.038
							c-4.371-6.871,0.113-17.545,10.014-23.843C41.753,52.522,53.322,52.987,57.692,59.857"/>
					</defs>
					<clipPath id="SVGID_9_">
						<use xlink:href="#SVGID_8_"  overflow="visible"/>
					</clipPath>
					
						<linearGradient id="SVGID_10_" gradientUnits="userSpaceOnUse" x1="-161.6821" y1="565.999" x2="-160.6819" y2="565.999" gradientTransform="matrix(24.8725 17.9228 17.9228 -24.8725 -6096.0776 17037.5)">
						<stop  offset="0" style="stop-color:#B6B5B5"/>
						<stop  offset="0.6255" style="stop-color:#D7D7D7"/>
						<stop  offset="1" style="stop-color:#E7E7E7"/>
					</linearGradient>
					<polygon clip-path="url(#SVGID_9_)" fill="url(#SVGID_10_)" points="32.708,31.37 79.837,65.331 46.821,111.15 -0.309,77.189 
											"/>
				</g>
			</g>
		</g>
	</g>
	<g>
		<g>
			<g>
				<defs>
					<rect id="SVGID_11_" x="58.071" y="85.626" width="1.884" height="3.241"/>
				</defs>
				<clipPath id="SVGID_12_">
					<use xlink:href="#SVGID_11_"  overflow="visible"/>
				</clipPath>
				<path clip-path="url(#SVGID_12_)" fill="#C8C7C8" d="M58.418,85.635l-0.026-0.005c-0.097-0.017-0.2,0.019-0.264,0.102
					c-0.064,0.084-0.072,0.193-0.03,0.282l1.313,2.773l0.544,0.08L58.418,85.635z"/>
			</g>
		</g>
	</g>
	<g>
		<defs>
			<path id="SVGID_13_" d="M40.784,89.302c-0.052,0.058-0.065,0.144-0.027,0.225l1.339,2.85c0.052,0.111,0.183,0.167,0.29,0.126
				l1.242-0.476c0.029-0.012,0.054-0.03,0.074-0.052c0.43-0.484,0.859-0.968,1.288-1.452c-0.019,0.021-0.044,0.039-0.074,0.051
				l-1.242,0.476c-0.108,0.042-0.238-0.014-0.29-0.126l-1.339-2.849c-0.037-0.08-0.024-0.168,0.027-0.225
				C41.642,88.334,41.212,88.818,40.784,89.302"/>
		</defs>
		<clipPath id="SVGID_14_">
			<use xlink:href="#SVGID_13_"  overflow="visible"/>
		</clipPath>
		
			<linearGradient id="SVGID_15_" gradientUnits="userSpaceOnUse" x1="-161.6265" y1="566.0234" x2="-160.6265" y2="566.0234" gradientTransform="matrix(2.9538 2.6504 2.6504 -2.9538 -981.528 2189.0525)">
			<stop  offset="0" style="stop-color:#000000"/>
			<stop  offset="0.0039" style="stop-color:#0D0D0D"/>
			<stop  offset="0.01" style="stop-color:#1E1D1D"/>
			<stop  offset="0.015" style="stop-color:#282828"/>
			<stop  offset="0.0184" style="stop-color:#2C2B2C"/>
			<stop  offset="0.0228" style="stop-color:#282828"/>
			<stop  offset="0.0377" style="stop-color:#212020"/>
			<stop  offset="0.0482" style="stop-color:#1E1D1D"/>
			<stop  offset="0.2685" style="stop-color:#2A2A2A"/>
			<stop  offset="0.7431" style="stop-color:#4C4B4B"/>
			<stop  offset="0.7624" style="stop-color:#4D4C4C"/>
			<stop  offset="0.7783" style="stop-color:#565555"/>
			<stop  offset="0.8016" style="stop-color:#636261"/>
			<stop  offset="0.8069" style="stop-color:#5E5D5D"/>
			<stop  offset="0.8152" style="stop-color:#535251"/>
			<stop  offset="0.8252" style="stop-color:#424140"/>
			<stop  offset="0.8366" style="stop-color:#2C2A2A"/>
			<stop  offset="0.8467" style="stop-color:#151515"/>
			<stop  offset="1" style="stop-color:#151515"/>
		</linearGradient>
		<polygon clip-path="url(#SVGID_14_)" fill="url(#SVGID_15_)" points="42.624,85.727 47.323,89.944 43.084,94.667 38.385,90.45 		
			"/>
	</g>
	<g>
		<defs>
			<path id="SVGID_16_" d="M37.778,86.744c-0.052,0.058-0.065,0.145-0.028,0.226l1.34,2.849c0.052,0.112,0.181,0.167,0.289,0.126
				l1.242-0.476c0.03-0.012,0.055-0.03,0.074-0.051l1.289-1.453c-0.02,0.022-0.045,0.04-0.075,0.051l-1.241,0.476
				c-0.108,0.042-0.238-0.014-0.29-0.126l-1.294-2.754c-0.037-0.081-0.069-0.262-0.018-0.32
				C38.637,85.776,38.208,86.259,37.778,86.744"/>
		</defs>
		<clipPath id="SVGID_17_">
			<use xlink:href="#SVGID_16_"  overflow="visible"/>
		</clipPath>
		
			<linearGradient id="SVGID_18_" gradientUnits="userSpaceOnUse" x1="-161.6782" y1="566.2266" x2="-160.6779" y2="566.2266" gradientTransform="matrix(2.9536 2.6503 2.6503 -2.9536 -984.8866 2187.1028)">
			<stop  offset="0" style="stop-color:#000000"/>
			<stop  offset="0.0023" style="stop-color:#0A0A0A"/>
			<stop  offset="0.0059" style="stop-color:#171717"/>
			<stop  offset="0.0097" style="stop-color:#202020"/>
			<stop  offset="0.0137" style="stop-color:#262526"/>
			<stop  offset="0.0183" style="stop-color:#272728"/>
			<stop  offset="0.0395" style="stop-color:#1F1E1E"/>
			<stop  offset="0.0415" style="stop-color:#1E1D1D"/>
			<stop  offset="0.2652" style="stop-color:#2A2A2A"/>
			<stop  offset="0.7473" style="stop-color:#4C4B4B"/>
			<stop  offset="0.7669" style="stop-color:#4D4C4C"/>
			<stop  offset="0.7796" style="stop-color:#535252"/>
			<stop  offset="0.8017" style="stop-color:#636362"/>
			<stop  offset="0.8069" style="stop-color:#686867"/>
			<stop  offset="0.8116" style="stop-color:#646362"/>
			<stop  offset="0.8188" style="stop-color:#585757"/>
			<stop  offset="0.8276" style="stop-color:#474545"/>
			<stop  offset="0.8377" style="stop-color:#2F2E2E"/>
			<stop  offset="0.8477" style="stop-color:#151515"/>
			<stop  offset="1" style="stop-color:#000000"/>
		</linearGradient>
		<polygon clip-path="url(#SVGID_17_)" fill="url(#SVGID_18_)" points="39.619,83.169 44.318,87.386 40.08,92.109 35.38,87.893 		
			"/>
	</g>
	<g>
		<defs>
			<path id="SVGID_19_" d="M62.42,89.427l-14.998,5.757l-1.289,1.453l14.998-5.758c0.029-0.011,0.055-0.029,0.073-0.05
				c0.43-0.484,0.86-0.969,1.289-1.453C62.475,89.398,62.45,89.416,62.42,89.427"/>
		</defs>
		<clipPath id="SVGID_20_">
			<use xlink:href="#SVGID_19_"  overflow="visible"/>
		</clipPath>
		
			<linearGradient id="SVGID_21_" gradientUnits="userSpaceOnUse" x1="-161.6719" y1="566.0332" x2="-160.6719" y2="566.0332" gradientTransform="matrix(5.5435 4.9742 4.9742 -5.5435 -1867.748 4032.54)">
			<stop  offset="0" style="stop-color:#000000"/>
			<stop  offset="0.1916" style="stop-color:#181818"/>
			<stop  offset="0.3917" style="stop-color:#2D2C2C"/>
			<stop  offset="0.5711" style="stop-color:#3D3B3C"/>
			<stop  offset="0.7212" style="stop-color:#464646"/>
			<stop  offset="0.8237" style="stop-color:#4A494A"/>
			<stop  offset="0.8631" style="stop-color:#4D4C4C"/>
			<stop  offset="0.9068" style="stop-color:#545353"/>
			<stop  offset="0.9523" style="stop-color:#616060"/>
			<stop  offset="0.9718" style="stop-color:#686867"/>
			<stop  offset="1" style="stop-color:#686867"/>
		</linearGradient>
		<polygon clip-path="url(#SVGID_20_)" fill="url(#SVGID_21_)" points="53.431,81.244 66.103,92.615 55.196,104.769 42.524,93.398 
					"/>
	</g>
	<g>
		<defs>
			<path id="SVGID_22_" d="M43.791,91.858c-0.051,0.059-0.064,0.145-0.027,0.225l2.08,4.427c0.052,0.111,0.183,0.168,0.29,0.127
				l1.289-1.453c-0.108,0.041-0.238-0.015-0.29-0.127l-2.08-4.425c-0.038-0.081-0.024-0.168,0.027-0.225
				C44.65,90.891,44.221,91.374,43.791,91.858"/>
		</defs>
		<clipPath id="SVGID_23_">
			<use xlink:href="#SVGID_22_"  overflow="visible"/>
		</clipPath>
		
			<linearGradient id="SVGID_24_" gradientUnits="userSpaceOnUse" x1="-161.666" y1="566.1074" x2="-160.666" y2="566.1074" gradientTransform="matrix(3.9585 3.552 3.552 -3.9585 -1327.1379 2907.0464)">
			<stop  offset="0" style="stop-color:#000000"/>
			<stop  offset="0.0026" style="stop-color:#090909"/>
			<stop  offset="0.0082" style="stop-color:#1A1A1A"/>
			<stop  offset="0.0129" style="stop-color:#242424"/>
			<stop  offset="0.0161" style="stop-color:#272728"/>
			<stop  offset="0.034" style="stop-color:#202020"/>
			<stop  offset="0.0475" style="stop-color:#1E1D1D"/>
			<stop  offset="0.254" style="stop-color:#272626"/>
			<stop  offset="0.6752" style="stop-color:#3E3D3D"/>
			<stop  offset="0.8744" style="stop-color:#4A494A"/>
			<stop  offset="0.8902" style="stop-color:#5A5959"/>
			<stop  offset="0.9012" style="stop-color:#636261"/>
			<stop  offset="0.9081" style="stop-color:#61605F"/>
			<stop  offset="0.913" style="stop-color:#5C5A59"/>
			<stop  offset="0.9173" style="stop-color:#535150"/>
			<stop  offset="0.9213" style="stop-color:#474544"/>
			<stop  offset="0.925" style="stop-color:#393636"/>
			<stop  offset="0.9285" style="stop-color:#272625"/>
			<stop  offset="0.9319" style="stop-color:#141414"/>
			<stop  offset="0.9347" style="stop-color:#000000"/>
			<stop  offset="0.9657" style="stop-color:#000000"/>
			<stop  offset="1" style="stop-color:#000000"/>
		</linearGradient>
		<polygon clip-path="url(#SVGID_23_)" fill="url(#SVGID_24_)" points="45.375,88.57 50.54,93.204 45.774,98.515 40.609,93.881 		
			"/>
	</g>
	<g>
		<defs>
			<path id="SVGID_25_" d="M62.42,89.427l-14.998,5.757l-1.289,1.453l14.998-5.758c0.029-0.011,0.055-0.029,0.073-0.05
				c0.43-0.484,0.86-0.969,1.289-1.453C62.475,89.398,62.45,89.416,62.42,89.427"/>
		</defs>
		<clipPath id="SVGID_26_">
			<use xlink:href="#SVGID_25_"  overflow="visible"/>
		</clipPath>
		
			<linearGradient id="SVGID_27_" gradientUnits="userSpaceOnUse" x1="-161.6719" y1="566.0332" x2="-160.6719" y2="566.0332" gradientTransform="matrix(5.5435 4.9742 4.9742 -5.5435 -1867.748 4032.54)">
			<stop  offset="0" style="stop-color:#000000"/>
			<stop  offset="0.1916" style="stop-color:#181818"/>
			<stop  offset="0.3917" style="stop-color:#2D2C2C"/>
			<stop  offset="0.5711" style="stop-color:#3D3B3C"/>
			<stop  offset="0.7212" style="stop-color:#464646"/>
			<stop  offset="0.8237" style="stop-color:#4A494A"/>
			<stop  offset="0.8631" style="stop-color:#4D4C4C"/>
			<stop  offset="0.9068" style="stop-color:#545353"/>
			<stop  offset="0.9523" style="stop-color:#616060"/>
			<stop  offset="0.9718" style="stop-color:#686867"/>
			<stop  offset="1" style="stop-color:#686867"/>
		</linearGradient>
		<polygon clip-path="url(#SVGID_26_)" fill="url(#SVGID_27_)" points="53.431,81.244 66.103,92.615 55.196,104.769 42.524,93.398 
					"/>
	</g>
	<g>
		<g opacity="0.6">
			<g>
				<g>
					<defs>
						<path id="SVGID_28_" d="M61.293,90.708l-15.026,5.765c-0.108,0.041-0.238-0.016-0.29-0.127l-2.08-4.426
							c-0.028-0.06-0.028-0.124-0.004-0.177c-0.034,0.039-0.068,0.077-0.102,0.116c-0.052,0.057-0.065,0.145-0.027,0.225
							l2.079,4.426c0.052,0.111,0.183,0.168,0.29,0.126l14.998-5.757c0.029-0.011,0.054-0.029,0.074-0.051
							c0.041-0.046,0.081-0.092,0.122-0.138C61.317,90.697,61.306,90.704,61.293,90.708"/>
					</defs>
					<clipPath id="SVGID_29_">
						<use xlink:href="#SVGID_28_"  overflow="visible"/>
					</clipPath>
					
						<linearGradient id="SVGID_30_" gradientUnits="userSpaceOnUse" x1="-161.6958" y1="565.9746" x2="-160.6958" y2="565.9746" gradientTransform="matrix(9.8243 8.8154 8.8154 -9.8243 -3354.0322 7074.189)">
						<stop  offset="0" style="stop-color:#000000"/>
						<stop  offset="0.0026" style="stop-color:#090909"/>
						<stop  offset="0.0082" style="stop-color:#1A1A1A"/>
						<stop  offset="0.0129" style="stop-color:#242424"/>
						<stop  offset="0.0161" style="stop-color:#272728"/>
						<stop  offset="0.034" style="stop-color:#202020"/>
						<stop  offset="0.0475" style="stop-color:#1E1D1D"/>
						<stop  offset="0.1374" style="stop-color:#2A2A2A"/>
						<stop  offset="0.3312" style="stop-color:#4C4B4B"/>
						<stop  offset="0.3391" style="stop-color:#4D4C4C"/>
						<stop  offset="0.3486" style="stop-color:#525252"/>
						<stop  offset="0.3648" style="stop-color:#626161"/>
						<stop  offset="0.3703" style="stop-color:#686867"/>
						<stop  offset="0.4047" style="stop-color:#313131"/>
						<stop  offset="0.9527" style="stop-color:#828383"/>
						<stop  offset="0.9643" style="stop-color:#5D5A5A"/>
						<stop  offset="1" style="stop-color:#000000"/>
					</linearGradient>
					<polygon clip-path="url(#SVGID_29_)" fill="url(#SVGID_30_)" points="51.577,81.941 64.304,93.361 53.477,105.427 
						40.75,94.007 					"/>
				</g>
			</g>
		</g>
		<g opacity="0.6">
			<g>
				<defs>
					<rect id="SVGID_31_" x="37.728" y="86.624" width="3.136" height="3.335"/>
				</defs>
				<clipPath id="SVGID_32_">
					<use xlink:href="#SVGID_31_"  overflow="visible"/>
				</clipPath>
				<g clip-path="url(#SVGID_32_)">
					<defs>
						<path id="SVGID_33_" d="M39.53,89.739c-0.107,0.041-0.238-0.016-0.29-0.127l-1.339-2.851
							c-0.022-0.047-0.017-0.093-0.001-0.137c-0.037,0.041-0.068,0.076-0.104,0.117c-0.007,0.007-0.024,0.027-0.031,0.033
							c-0.046,0.038-0.048,0.124-0.015,0.194l1.338,2.851c0.052,0.111,0.183,0.168,0.291,0.126l1.241-0.476
							c0.03-0.012,0.055-0.029,0.075-0.051c0.056-0.064,0.112-0.127,0.168-0.19L39.53,89.739z"/>
					</defs>
					<clipPath id="SVGID_34_">
						<use xlink:href="#SVGID_33_"  overflow="visible"/>
					</clipPath>
					
						<linearGradient id="SVGID_35_" gradientUnits="userSpaceOnUse" x1="-161.6411" y1="565.9805" x2="-160.6411" y2="565.9805" gradientTransform="matrix(2.9654 2.6608 2.6608 -2.9654 -988.9609 2195.2974)">
						<stop  offset="0" style="stop-color:#1C1C1B"/>
						<stop  offset="0.0038" style="stop-color:#262524"/>
						<stop  offset="0.0079" style="stop-color:#2C2C2C"/>
						<stop  offset="0.0127" style="stop-color:#303030"/>
						<stop  offset="0.0192" style="stop-color:#313131"/>
						<stop  offset="0.0286" style="stop-color:#292929"/>
						<stop  offset="0.04" style="stop-color:#1E1D1D"/>
						<stop  offset="0.1777" style="stop-color:#1F1F1F"/>
						<stop  offset="0.2847" style="stop-color:#242323"/>
						<stop  offset="0.3814" style="stop-color:#2C2B2B"/>
						<stop  offset="0.4721" style="stop-color:#383636"/>
						<stop  offset="0.5584" style="stop-color:#474646"/>
						<stop  offset="0.6417" style="stop-color:#5C5A5A"/>
						<stop  offset="0.7208" style="stop-color:#757575"/>
						<stop  offset="0.7541" style="stop-color:#828383"/>
						<stop  offset="0.772" style="stop-color:#909090"/>
						<stop  offset="0.7933" style="stop-color:#9C9B9B"/>
						<stop  offset="0.819" style="stop-color:#4B4847"/>
						<stop  offset="0.8398" style="stop-color:#151515"/>
						<stop  offset="1" style="stop-color:#000000"/>
					</linearGradient>
					<polygon clip-path="url(#SVGID_34_)" fill="url(#SVGID_35_)" points="39.121,85.06 42.535,88.124 39.46,91.551 36.046,88.487 
											"/>
				</g>
			</g>
		</g>
		<g opacity="0.6">
			<g>
				<defs>
					<rect id="SVGID_36_" x="40.737" y="89.178" width="3.133" height="3.339"/>
				</defs>
				<clipPath id="SVGID_37_">
					<use xlink:href="#SVGID_36_"  overflow="visible"/>
				</clipPath>
				<g clip-path="url(#SVGID_37_)">
					<defs>
						<path id="SVGID_38_" d="M42.539,92.296c-0.108,0.042-0.238-0.015-0.29-0.126l-1.339-2.851
							c-0.022-0.047-0.011-0.097-0.001-0.141c-0.036,0.041-0.068,0.076-0.105,0.117c-0.006,0.007-0.02,0.023-0.027,0.029
							c-0.046,0.038-0.051,0.132-0.018,0.202l1.338,2.851c0.052,0.111,0.183,0.167,0.291,0.126l1.241-0.477
							c0.03-0.011,0.055-0.029,0.074-0.051c0.056-0.063,0.112-0.126,0.169-0.189L42.539,92.296z"/>
					</defs>
					<clipPath id="SVGID_39_">
						<use xlink:href="#SVGID_38_"  overflow="visible"/>
					</clipPath>
					
						<linearGradient id="SVGID_40_" gradientUnits="userSpaceOnUse" x1="-161.6118" y1="566.0957" x2="-160.6122" y2="566.0957" gradientTransform="matrix(2.9676 2.6628 2.6628 -2.9676 -987.1278 2199.687)">
						<stop  offset="0" style="stop-color:#1C1C1B"/>
						<stop  offset="0.0038" style="stop-color:#262524"/>
						<stop  offset="0.0079" style="stop-color:#2C2C2C"/>
						<stop  offset="0.0127" style="stop-color:#303030"/>
						<stop  offset="0.0192" style="stop-color:#313131"/>
						<stop  offset="0.0286" style="stop-color:#292929"/>
						<stop  offset="0.04" style="stop-color:#1E1D1D"/>
						<stop  offset="0.1777" style="stop-color:#1F1F1F"/>
						<stop  offset="0.2847" style="stop-color:#242323"/>
						<stop  offset="0.3814" style="stop-color:#2C2B2B"/>
						<stop  offset="0.4721" style="stop-color:#383636"/>
						<stop  offset="0.5584" style="stop-color:#474646"/>
						<stop  offset="0.6417" style="stop-color:#5C5A5A"/>
						<stop  offset="0.7208" style="stop-color:#757575"/>
						<stop  offset="0.7541" style="stop-color:#828383"/>
						<stop  offset="0.772" style="stop-color:#909090"/>
						<stop  offset="0.7933" style="stop-color:#9C9B9B"/>
						<stop  offset="0.819" style="stop-color:#4B4847"/>
						<stop  offset="0.8398" style="stop-color:#151515"/>
						<stop  offset="1" style="stop-color:#000000"/>
					</linearGradient>
					<polygon clip-path="url(#SVGID_39_)" fill="url(#SVGID_40_)" points="42.129,87.614 45.544,90.679 42.468,94.108 
						39.052,91.042 					"/>
				</g>
			</g>
		</g>
	</g>
	<g>
		<defs>
			<path id="SVGID_41_" d="M58.457,85.553c-0.051,0.058-0.065,0.145-0.027,0.225l1.341,2.854c0.017,0.037,0.011,0.077-0.013,0.104
				c0.126-0.142,0.252-0.284,0.379-0.427c0.024-0.027,0.03-0.067,0.013-0.105l-1.341-2.853c-0.038-0.081-0.024-0.167,0.027-0.225
				C58.708,85.269,58.583,85.411,58.457,85.553"/>
		</defs>
		<clipPath id="SVGID_42_">
			<use xlink:href="#SVGID_41_"  overflow="visible"/>
		</clipPath>
		
			<linearGradient id="SVGID_43_" gradientUnits="userSpaceOnUse" x1="-161.7891" y1="566.1357" x2="-160.7887" y2="566.1357" gradientTransform="matrix(2.2981 2.1159 2.1159 -2.2981 -767.9745 1729.2147)">
			<stop  offset="0" style="stop-color:#1C1C1B"/>
			<stop  offset="0.0045" style="stop-color:#2C2B29"/>
			<stop  offset="0.0098" style="stop-color:#3A3938"/>
			<stop  offset="0.0149" style="stop-color:#444343"/>
			<stop  offset="0.0197" style="stop-color:#4B4A4A"/>
			<stop  offset="0.0238" style="stop-color:#4D4C4C"/>
			<stop  offset="0.0445" style="stop-color:#3D3C3C"/>
			<stop  offset="0.081" style="stop-color:#1E1D1D"/>
			<stop  offset="0.4684" style="stop-color:#1F1E1E"/>
			<stop  offset="0.6761" style="stop-color:#222222"/>
			<stop  offset="0.8406" style="stop-color:#282828"/>
			<stop  offset="0.9825" style="stop-color:#303030"/>
			<stop  offset="1" style="stop-color:#313131"/>
		</linearGradient>
		<polygon clip-path="url(#SVGID_42_)" fill="url(#SVGID_43_)" points="59.206,84.242 61.965,86.782 59.352,89.621 56.593,87.08 		
			"/>
	</g>
	<g>
		<defs>
			<path id="SVGID_44_" d="M43.388,87.322l-1.242,0.476c-0.107,0.042-0.153,0.166-0.101,0.277l1.339,2.849
				c0.052,0.112,0.182,0.168,0.29,0.126l1.242-0.476c0.108-0.041,0.153-0.165,0.101-0.277l-1.339-2.849
				c-0.041-0.087-0.128-0.14-0.216-0.14C43.437,87.308,43.412,87.312,43.388,87.322 M40.382,84.764l-1.242,0.477
				c-0.108,0.041-0.153,0.165-0.101,0.276l1.339,2.849c0.052,0.112,0.182,0.168,0.29,0.126l1.241-0.476
				c0.108-0.041,0.154-0.165,0.102-0.276l-1.339-2.849c-0.04-0.087-0.128-0.141-0.216-0.141
				C40.432,84.75,40.407,84.755,40.382,84.764 M60.151,84.598l-1.242,0.477c-0.108,0.042-0.153,0.165-0.101,0.276l1.341,2.853
				c0.023,0.052,0.002,0.109-0.048,0.129l-11.94,4.584c-0.051,0.019-0.111-0.007-0.135-0.059l-1.34-2.854
				c-0.053-0.11-0.183-0.167-0.291-0.126l-1.242,0.477c-0.107,0.042-0.153,0.165-0.101,0.277l2.079,4.425
				c0.052,0.112,0.183,0.168,0.291,0.127l14.998-5.757c0.107-0.042,0.153-0.166,0.1-0.277l-2.08-4.426
				c-0.04-0.086-0.128-0.139-0.215-0.139C60.201,84.585,60.175,84.589,60.151,84.598 M37.377,82.207l-1.242,0.476
				c-0.108,0.041-0.153,0.166-0.101,0.276l1.338,2.85c0.053,0.111,0.183,0.168,0.291,0.127l1.241-0.478
				c0.108-0.041,0.154-0.165,0.102-0.276l-1.339-2.849c-0.041-0.087-0.128-0.14-0.216-0.14
				C37.426,82.193,37.401,82.198,37.377,82.207 M35.106,81.211l-1.242,0.477c-0.108,0.042-0.153,0.165-0.101,0.277l0.601,1.277
				c0.052,0.111,0.183,0.168,0.29,0.127l1.242-0.477c0.108-0.042,0.153-0.165,0.1-0.277l-0.6-1.277
				c-0.041-0.087-0.129-0.14-0.216-0.14C35.155,81.198,35.13,81.202,35.106,81.211 M59.461,79.291l-1.242,0.477
				c-0.108,0.041-0.154,0.164-0.101,0.276l2.079,4.425c0.053,0.112,0.182,0.169,0.29,0.127l1.242-0.477
				c0.108-0.041,0.154-0.164,0.101-0.276l-2.079-4.426c-0.041-0.086-0.129-0.14-0.216-0.14
				C59.51,79.277,59.485,79.282,59.461,79.291 M34.417,75.906l-4.297,1.649c-0.108,0.041-0.154,0.165-0.101,0.276l2.079,4.426
				c0.052,0.111,0.182,0.168,0.29,0.126l1.242-0.476c0.108-0.041,0.153-0.166,0.101-0.277l-1.34-2.853
				c-0.024-0.051-0.004-0.109,0.047-0.129l2.768-1.063c0.108-0.041,0.154-0.164,0.102-0.276l-0.6-1.278
				c-0.041-0.086-0.129-0.139-0.216-0.139C34.465,75.892,34.44,75.897,34.417,75.906 M55.814,67.691l-1.242,0.476
				c-0.108,0.041-0.153,0.165-0.1,0.276l5.035,10.72c0.052,0.111,0.183,0.167,0.291,0.126l1.241-0.477
				c0.108-0.041,0.154-0.166,0.102-0.276l-5.037-10.719c-0.04-0.087-0.128-0.14-0.215-0.14
				C55.863,67.677,55.838,67.681,55.814,67.691 M53.546,66.703l-1.241,0.476c-0.108,0.041-0.153,0.165-0.101,0.277l0.6,1.277
				c0.052,0.111,0.183,0.167,0.291,0.126l1.241-0.476c0.108-0.042,0.153-0.167,0.101-0.277l-0.6-1.278
				c-0.04-0.086-0.128-0.139-0.216-0.139C53.597,66.689,53.571,66.693,53.546,66.703 M51.28,65.717l-2.767,1.062
				c-0.131,0.049-0.158,0.16-0.11,0.263l2.825,6.013c0.052,0.11,0.183,0.167,0.291,0.126l1.241-0.476
				c0.108-0.042,0.153-0.166,0.102-0.277l-2.08-4.426c-0.025-0.052-0.003-0.11,0.046-0.129l1.241-0.476
				c0.108-0.041,0.153-0.165,0.101-0.276l-0.6-1.278c-0.041-0.087-0.128-0.14-0.215-0.14C51.331,65.703,51.305,65.708,51.28,65.717
				 M47.485,65.317l-4.297,1.649c-0.108,0.042-0.154,0.167-0.101,0.277l2.818,5.999c0.052,0.111,0.182,0.167,0.29,0.126l1.242-0.476
				c0.108-0.042,0.153-0.166,0.101-0.277l-2.079-4.427c-0.024-0.05-0.004-0.109,0.047-0.127l2.768-1.063
				c0.034-0.013,0.06-0.034,0.081-0.059c0.031-0.029,0.042-0.084,0.042-0.116c0-0.039-0.006-0.067-0.021-0.102l-0.6-1.278
				c-0.041-0.086-0.129-0.139-0.217-0.139C47.535,65.304,47.509,65.308,47.485,65.317 M31.561,62.147l-1.242,0.477
				c-0.108,0.041-0.154,0.165-0.101,0.276l6.514,13.864c0.024,0.052,0.003,0.109-0.047,0.129l-1.241,0.476
				c-0.108,0.042-0.154,0.166-0.102,0.277l0.6,1.278c0.053,0.11,0.183,0.167,0.291,0.126l1.241-0.476
				c0.051-0.02,0.11,0.006,0.134,0.058l0.602,1.279c0.052,0.111,0.182,0.168,0.29,0.127l1.242-0.477
				c0.108-0.042,0.153-0.166,0.101-0.276l-7.992-17.012c-0.041-0.086-0.128-0.14-0.216-0.14
				C31.609,62.133,31.584,62.138,31.561,62.147 M36.146,60.384l-1.242,0.478c-0.108,0.041-0.153,0.164-0.101,0.276l6.514,13.865
				c0.052,0.112,0.183,0.168,0.29,0.126l1.242-0.476c0.108-0.041,0.153-0.165,0.101-0.277l-2.818-5.999
				c-0.024-0.051-0.004-0.109,0.047-0.128l2.768-1.063c0.108-0.042,0.154-0.165,0.102-0.276l-0.6-1.278
				c-0.053-0.111-0.184-0.168-0.291-0.127l-2.769,1.063c-0.05,0.019-0.11-0.007-0.134-0.058l-2.819-6
				c-0.041-0.086-0.128-0.139-0.216-0.139C36.194,60.371,36.169,60.375,36.146,60.384 M33.878,59.398l-2.77,1.063
				c-0.108,0.041-0.153,0.166-0.1,0.276l0.6,1.278c0.052,0.112,0.183,0.169,0.291,0.127l2.768-1.063
				c0.108-0.041,0.154-0.165,0.101-0.277l-0.6-1.277c-0.04-0.087-0.128-0.14-0.216-0.14C33.927,59.385,33.902,59.389,33.878,59.398"
				/>
		</defs>
		<clipPath id="SVGID_45_">
			<use xlink:href="#SVGID_44_"  overflow="visible"/>
		</clipPath>
		
			<linearGradient id="SVGID_46_" gradientUnits="userSpaceOnUse" x1="-161.6626" y1="566.0156" x2="-160.6626" y2="566.0156" gradientTransform="matrix(25.5042 34.1921 34.1921 -25.5042 -15197.2832 20022.7813)">
			<stop  offset="0" style="stop-color:#000000"/>
			<stop  offset="0.1586" style="stop-color:#020202"/>
			<stop  offset="0.3002" style="stop-color:#070707"/>
			<stop  offset="0.4352" style="stop-color:#111010"/>
			<stop  offset="0.5662" style="stop-color:#1D1C1B"/>
			<stop  offset="0.6944" style="stop-color:#2C2B2A"/>
			<stop  offset="0.8204" style="stop-color:#403E3E"/>
			<stop  offset="0.9423" style="stop-color:#595857"/>
			<stop  offset="1" style="stop-color:#686867"/>
		</linearGradient>
		<polygon clip-path="url(#SVGID_45_)" fill="url(#SVGID_46_)" points="50.917,43.757 79.75,82.413 41.623,110.853 12.789,72.197 		
			"/>
	</g>
	<g>
		<defs>
			<path id="SVGID_47_" d="M58.793,85.397l1.295,2.758c0.012,0.024,0.065,0.128-0.023,0.192c0.12-0.031,0.123-0.128,0.084-0.22
				l-1.29-2.744c-0.044-0.089-0.047-0.249,0.08-0.32C58.71,85.143,58.778,85.365,58.793,85.397"/>
		</defs>
		<clipPath id="SVGID_48_">
			<use xlink:href="#SVGID_47_"  overflow="visible"/>
		</clipPath>
		
			<linearGradient id="SVGID_49_" gradientUnits="userSpaceOnUse" x1="-161.6919" y1="566.1367" x2="-160.6919" y2="566.1367" gradientTransform="matrix(1.9934 2.6725 2.6725 -1.9934 -1132.2229 1646.0393)">
			<stop  offset="0" style="stop-color:#000000"/>
			<stop  offset="9.060628e-004" style="stop-color:#121211"/>
			<stop  offset="0.0023" style="stop-color:#292727"/>
			<stop  offset="0.0038" style="stop-color:#3E3B3B"/>
			<stop  offset="0.0053" style="stop-color:#514F4E"/>
			<stop  offset="0.0069" style="stop-color:#626060"/>
			<stop  offset="0.0086" style="stop-color:#706F6F"/>
			<stop  offset="0.0105" style="stop-color:#7A7A7A"/>
			<stop  offset="0.0127" style="stop-color:#808181"/>
			<stop  offset="0.0157" style="stop-color:#828383"/>
			<stop  offset="0.0194" style="stop-color:#777777"/>
			<stop  offset="0.0328" style="stop-color:#575555"/>
			<stop  offset="0.0458" style="stop-color:#3E3C3C"/>
			<stop  offset="0.0581" style="stop-color:#2C2B2A"/>
			<stop  offset="0.0696" style="stop-color:#1F1F1E"/>
			<stop  offset="0.0799" style="stop-color:#181717"/>
			<stop  offset="0.088" style="stop-color:#151515"/>
			<stop  offset="0.1278" style="stop-color:#1C1B1B"/>
			<stop  offset="0.1996" style="stop-color:#312D2D"/>
			<stop  offset="0.2951" style="stop-color:#565151"/>
			<stop  offset="0.4094" style="stop-color:#959190"/>
			<stop  offset="0.4892" style="stop-color:#CDCCCC"/>
			<stop  offset="0.6079" style="stop-color:#A09D9D"/>
			<stop  offset="0.8358" style="stop-color:#4D4C4C"/>
			<stop  offset="0.8599" style="stop-color:#514F50"/>
			<stop  offset="0.8876" style="stop-color:#5B5959"/>
			<stop  offset="0.9171" style="stop-color:#6D6B6B"/>
			<stop  offset="0.9476" style="stop-color:#898787"/>
			<stop  offset="0.9644" style="stop-color:#9C9B9B"/>
			<stop  offset="0.9808" style="stop-color:#868584"/>
			<stop  offset="1" style="stop-color:#686867"/>
		</linearGradient>
		<polygon clip-path="url(#SVGID_48_)" fill="url(#SVGID_49_)" points="59.66,84.354 61.762,87.173 59.239,89.055 57.137,86.237 		
			"/>
	</g>
	<g>
		<defs>
			<path id="SVGID_50_" d="M39.047,85.63l1.294,2.754c0.046,0.098,0.147,0.163,0.253,0.163c0.031,0,0.061-0.005,0.089-0.016
				l1.127-0.433c0,0,0.332-0.128,0.186-0.39c0.066,0.18-0.099,0.272-0.215,0.314l-1.128,0.432c-0.018,0.007-0.039,0.011-0.059,0.011
				c-0.074,0-0.146-0.046-0.179-0.116l-1.293-2.755c-0.03-0.063-0.143-0.285,0.08-0.378C38.943,85.296,38.986,85.503,39.047,85.63"
				/>
		</defs>
		<clipPath id="SVGID_51_">
			<use xlink:href="#SVGID_50_"  overflow="visible"/>
		</clipPath>
		
			<linearGradient id="SVGID_52_" gradientUnits="userSpaceOnUse" x1="-161.7109" y1="566.1074" x2="-160.7105" y2="566.1074" gradientTransform="matrix(3.1996 2.2952 2.2952 -3.1996 -743.1104 2268.1125)">
			<stop  offset="0" style="stop-color:#000000"/>
			<stop  offset="0.006" style="stop-color:#131313"/>
			<stop  offset="0.0169" style="stop-color:#313030"/>
			<stop  offset="0.0248" style="stop-color:#454444"/>
			<stop  offset="0.0289" style="stop-color:#4D4C4C"/>
			<stop  offset="0.0641" style="stop-color:#323131"/>
			<stop  offset="0.1043" style="stop-color:#151515"/>
			<stop  offset="0.1423" style="stop-color:#1D1B1B"/>
			<stop  offset="0.2108" style="stop-color:#34302F"/>
			<stop  offset="0.3019" style="stop-color:#615A59"/>
			<stop  offset="0.4108" style="stop-color:#ACA7A6"/>
			<stop  offset="0.4892" style="stop-color:#F4F3F3"/>
			<stop  offset="0.567" style="stop-color:#A5A09F"/>
			<stop  offset="0.6764" style="stop-color:#4D4C4C"/>
			<stop  offset="0.7014" style="stop-color:#515050"/>
			<stop  offset="0.7357" style="stop-color:#5A5A59"/>
			<stop  offset="0.7679" style="stop-color:#686867"/>
			<stop  offset="0.8536" style="stop-color:#353535"/>
			<stop  offset="0.8595" style="stop-color:#313131"/>
			<stop  offset="0.9051" style="stop-color:#2A292A"/>
			<stop  offset="0.9959" style="stop-color:#151515"/>
			<stop  offset="0.9985" style="stop-color:#151515"/>
			<stop  offset="1" style="stop-color:#151515"/>
		</linearGradient>
		<polygon clip-path="url(#SVGID_51_)" fill="url(#SVGID_52_)" points="40.03,83.701 43.72,86.348 41.056,90.062 37.366,87.416 		
			"/>
	</g>
	<g>
		<defs>
			<path id="SVGID_53_" d="M42.026,88.164l1.303,2.778c0.046,0.098,0.148,0.164,0.253,0.164c0.032,0,0.062-0.005,0.09-0.016
				l1.173-0.449c0,0,0.309-0.108,0.145-0.4c0.098,0.239-0.159,0.315-0.182,0.324c-0.303,0.116-1.166,0.447-1.166,0.447
				c-0.018,0.008-0.039,0.011-0.06,0.011c-0.073,0-0.145-0.047-0.178-0.116l-1.303-2.778c-0.03-0.062-0.099-0.26,0.121-0.36
				C41.938,87.85,41.99,88.087,42.026,88.164"/>
		</defs>
		<clipPath id="SVGID_54_">
			<use xlink:href="#SVGID_53_"  overflow="visible"/>
		</clipPath>
		
			<linearGradient id="SVGID_55_" gradientUnits="userSpaceOnUse" x1="-161.8062" y1="566.002" x2="-160.8062" y2="566.002" gradientTransform="matrix(3.2042 2.2985 2.2985 -3.2042 -740.676 2273.6931)">
			<stop  offset="0" style="stop-color:#000000"/>
			<stop  offset="0.006" style="stop-color:#131313"/>
			<stop  offset="0.0169" style="stop-color:#313030"/>
			<stop  offset="0.0248" style="stop-color:#454444"/>
			<stop  offset="0.0289" style="stop-color:#4D4C4C"/>
			<stop  offset="0.0641" style="stop-color:#323131"/>
			<stop  offset="0.1043" style="stop-color:#151515"/>
			<stop  offset="0.1423" style="stop-color:#1D1B1B"/>
			<stop  offset="0.2108" style="stop-color:#34302F"/>
			<stop  offset="0.3019" style="stop-color:#615A59"/>
			<stop  offset="0.4108" style="stop-color:#ACA7A6"/>
			<stop  offset="0.4892" style="stop-color:#F4F3F3"/>
			<stop  offset="0.567" style="stop-color:#A5A09F"/>
			<stop  offset="0.6764" style="stop-color:#4D4C4C"/>
			<stop  offset="0.6999" style="stop-color:#515050"/>
			<stop  offset="0.7322" style="stop-color:#5A5A59"/>
			<stop  offset="0.7627" style="stop-color:#686867"/>
			<stop  offset="0.8451" style="stop-color:#353535"/>
			<stop  offset="0.8507" style="stop-color:#313131"/>
			<stop  offset="0.8822" style="stop-color:#292929"/>
			<stop  offset="0.9434" style="stop-color:#151515"/>
			<stop  offset="0.9985" style="stop-color:#000000"/>
			<stop  offset="1" style="stop-color:#000000"/>
		</linearGradient>
		<polygon clip-path="url(#SVGID_54_)" fill="url(#SVGID_55_)" points="43.03,86.246 46.735,88.903 44.062,92.63 40.357,89.972 		
			"/>
	</g>
	<g>
		<defs>
			<path id="SVGID_56_" d="M45.039,90.701l2.056,4.374c0.042,0.089,0.134,0.216,0.312,0.177c0,0,0.003-0.022,0.016-0.09
				c-0.13,0.053-0.212-0.034-0.253-0.122l-2.057-4.374c-0.028-0.062-0.093-0.249,0.124-0.342
				C44.99,90.39,44.982,90.59,45.039,90.701"/>
		</defs>
		<clipPath id="SVGID_57_">
			<use xlink:href="#SVGID_56_"  overflow="visible"/>
		</clipPath>
		
			<linearGradient id="SVGID_58_" gradientUnits="userSpaceOnUse" x1="-161.6709" y1="566.0469" x2="-160.6704" y2="566.0469" gradientTransform="matrix(3.1551 4.2299 4.2299 -3.1551 -1839.6104 2560.4858)">
			<stop  offset="0" style="stop-color:#000000"/>
			<stop  offset="0.003" style="stop-color:#161616"/>
			<stop  offset="0.0063" style="stop-color:#292828"/>
			<stop  offset="0.0095" style="stop-color:#383737"/>
			<stop  offset="0.0125" style="stop-color:#444242"/>
			<stop  offset="0.0155" style="stop-color:#4B4A4A"/>
			<stop  offset="0.018" style="stop-color:#4D4C4C"/>
			<stop  offset="0.0278" style="stop-color:#434142"/>
			<stop  offset="0.0488" style="stop-color:#2F2E2E"/>
			<stop  offset="0.0676" style="stop-color:#212020"/>
			<stop  offset="0.0836" style="stop-color:#181818"/>
			<stop  offset="0.0947" style="stop-color:#151515"/>
			<stop  offset="0.1337" style="stop-color:#1D1B1B"/>
			<stop  offset="0.2039" style="stop-color:#34302F"/>
			<stop  offset="0.2973" style="stop-color:#615A59"/>
			<stop  offset="0.4089" style="stop-color:#ACA7A6"/>
			<stop  offset="0.4892" style="stop-color:#F4F3F3"/>
			<stop  offset="0.5792" style="stop-color:#C8C4C3"/>
			<stop  offset="0.7781" style="stop-color:#686463"/>
			<stop  offset="0.8401" style="stop-color:#4D4C4C"/>
			<stop  offset="0.8642" style="stop-color:#515050"/>
			<stop  offset="0.889" style="stop-color:#5C5B5B"/>
			<stop  offset="0.9141" style="stop-color:#716F6F"/>
			<stop  offset="0.9393" style="stop-color:#918F8F"/>
			<stop  offset="0.9603" style="stop-color:#B6B5B5"/>
			<stop  offset="1" style="stop-color:#686867"/>
		</linearGradient>
		<polygon clip-path="url(#SVGID_57_)" fill="url(#SVGID_58_)" points="46.55,89.155 49.803,93.516 45.855,96.46 42.602,92.1 		"/>
	</g>
	<g>
		<defs>
			<path id="SVGID_59_" d="M62.292,89.432l-14.87,5.73l-0.016,0.09l14.914-5.743c0,0,0.322-0.128,0.191-0.378
				C62.577,89.349,62.314,89.423,62.292,89.432"/>
		</defs>
		<clipPath id="SVGID_60_">
			<use xlink:href="#SVGID_59_"  overflow="visible"/>
		</clipPath>
		
			<linearGradient id="SVGID_61_" gradientUnits="userSpaceOnUse" x1="-161.6646" y1="565.9756" x2="-160.665" y2="565.9756" gradientTransform="matrix(15.2056 -5.8132 -5.8132 -15.2056 5795.7939 7761.2881)">
			<stop  offset="0" style="stop-color:#686867"/>
			<stop  offset="0.0406" style="stop-color:#817E7D"/>
			<stop  offset="0.1407" style="stop-color:#BCB8B8"/>
			<stop  offset="0.2142" style="stop-color:#E4E2E2"/>
			<stop  offset="0.2527" style="stop-color:#F4F3F3"/>
			<stop  offset="0.5459" style="stop-color:#767070"/>
			<stop  offset="0.7754" style="stop-color:#313131"/>
			<stop  offset="0.8059" style="stop-color:#383737"/>
			<stop  offset="0.8625" style="stop-color:#494848"/>
			<stop  offset="0.9243" style="stop-color:#615F5F"/>
			<stop  offset="0.9402" style="stop-color:#646262"/>
			<stop  offset="0.9525" style="stop-color:#6D6B6A"/>
			<stop  offset="0.9635" style="stop-color:#7E7B7A"/>
			<stop  offset="0.9738" style="stop-color:#979493"/>
			<stop  offset="0.9835" style="stop-color:#B8B6B5"/>
			<stop  offset="0.9883" style="stop-color:#CDCCCC"/>
			<stop  offset="0.9893" style="stop-color:#C5C3C3"/>
			<stop  offset="0.9909" style="stop-color:#AFACAB"/>
			<stop  offset="0.9927" style="stop-color:#8D8887"/>
			<stop  offset="0.9948" style="stop-color:#645D5C"/>
			<stop  offset="0.9971" style="stop-color:#373130"/>
			<stop  offset="0.9995" style="stop-color:#090808"/>
			<stop  offset="1" style="stop-color:#000000"/>
		</linearGradient>
		<polygon clip-path="url(#SVGID_60_)" fill="url(#SVGID_61_)" points="45.365,89.912 60.7,84.049 64.684,94.472 49.35,100.334 		
			"/>
	</g>
	<g>
		<defs>
			<path id="SVGID_62_" d="M43.388,87.322l-1.242,0.476c-0.107,0.042-0.153,0.166-0.101,0.277l1.339,2.849
				c0.052,0.112,0.182,0.168,0.29,0.126l1.242-0.476c0.108-0.041,0.153-0.165,0.101-0.277l-1.339-2.849
				c-0.041-0.087-0.128-0.14-0.216-0.14C43.437,87.308,43.412,87.312,43.388,87.322 M40.382,84.764l-1.242,0.477
				c-0.108,0.041-0.153,0.165-0.101,0.276l1.339,2.849c0.052,0.112,0.182,0.168,0.29,0.126l1.241-0.476
				c0.108-0.041,0.154-0.165,0.102-0.276l-1.339-2.849c-0.04-0.087-0.128-0.141-0.216-0.141
				C40.432,84.75,40.407,84.755,40.382,84.764 M60.151,84.598l-1.242,0.477c-0.108,0.042-0.153,0.165-0.101,0.276l1.341,2.853
				c0.023,0.052,0.002,0.109-0.048,0.129l-11.94,4.584c-0.051,0.019-0.111-0.007-0.135-0.059l-1.34-2.854
				c-0.053-0.11-0.183-0.167-0.291-0.126l-1.242,0.477c-0.107,0.042-0.153,0.165-0.101,0.277l2.079,4.425
				c0.052,0.112,0.183,0.168,0.291,0.127l14.998-5.757c0.107-0.042,0.153-0.166,0.1-0.277l-2.08-4.426
				c-0.04-0.086-0.128-0.139-0.215-0.139C60.201,84.585,60.175,84.589,60.151,84.598 M37.377,82.207l-1.242,0.476
				c-0.108,0.041-0.153,0.166-0.101,0.276l1.338,2.85c0.053,0.111,0.183,0.168,0.291,0.127l1.241-0.478
				c0.108-0.041,0.154-0.165,0.102-0.276l-1.339-2.849c-0.041-0.087-0.128-0.14-0.216-0.14
				C37.426,82.193,37.401,82.198,37.377,82.207 M35.106,81.211l-1.242,0.477c-0.108,0.042-0.153,0.165-0.101,0.277l0.601,1.277
				c0.052,0.111,0.183,0.168,0.29,0.127l1.242-0.477c0.108-0.042,0.153-0.165,0.1-0.277l-0.6-1.277
				c-0.041-0.087-0.129-0.14-0.216-0.14C35.155,81.198,35.13,81.202,35.106,81.211 M59.461,79.291l-1.242,0.477
				c-0.108,0.041-0.154,0.164-0.101,0.276l2.079,4.425c0.053,0.112,0.182,0.169,0.29,0.127l1.242-0.477
				c0.108-0.041,0.154-0.164,0.101-0.276l-2.079-4.426c-0.041-0.086-0.129-0.14-0.216-0.14
				C59.51,79.277,59.485,79.282,59.461,79.291 M34.417,75.906l-4.297,1.649c-0.108,0.041-0.154,0.165-0.101,0.276l2.079,4.426
				c0.052,0.111,0.182,0.168,0.29,0.126l1.242-0.476c0.108-0.041,0.153-0.166,0.101-0.277l-1.34-2.853
				c-0.024-0.051-0.004-0.109,0.047-0.129l2.768-1.063c0.108-0.041,0.154-0.164,0.102-0.276l-0.6-1.278
				c-0.041-0.086-0.129-0.139-0.216-0.139C34.465,75.892,34.44,75.897,34.417,75.906 M55.814,67.691l-1.242,0.476
				c-0.108,0.041-0.153,0.165-0.1,0.276l5.035,10.72c0.052,0.111,0.183,0.167,0.291,0.126l1.241-0.477
				c0.108-0.041,0.154-0.166,0.102-0.276l-5.037-10.719c-0.04-0.087-0.128-0.14-0.215-0.14
				C55.863,67.677,55.838,67.681,55.814,67.691 M53.546,66.703l-1.241,0.476c-0.108,0.041-0.153,0.165-0.101,0.277l0.6,1.277
				c0.052,0.111,0.183,0.167,0.291,0.126l1.241-0.476c0.108-0.042,0.153-0.167,0.101-0.277l-0.6-1.278
				c-0.04-0.086-0.128-0.139-0.216-0.139C53.597,66.689,53.571,66.693,53.546,66.703 M51.28,65.717l-2.767,1.062
				c-0.131,0.049-0.158,0.16-0.11,0.263l2.825,6.013c0.052,0.11,0.183,0.167,0.291,0.126l1.241-0.476
				c0.108-0.042,0.153-0.166,0.102-0.277l-2.08-4.426c-0.025-0.052-0.003-0.11,0.046-0.129l1.241-0.476
				c0.108-0.041,0.153-0.165,0.101-0.276l-0.6-1.278c-0.041-0.087-0.128-0.14-0.215-0.14C51.331,65.703,51.305,65.708,51.28,65.717
				 M47.485,65.317l-4.297,1.649c-0.108,0.042-0.154,0.167-0.101,0.277l2.818,5.999c0.052,0.111,0.182,0.167,0.29,0.126l1.242-0.476
				c0.108-0.042,0.153-0.166,0.101-0.277l-2.079-4.427c-0.024-0.05-0.004-0.109,0.047-0.127l2.768-1.063
				c0.034-0.013,0.06-0.034,0.081-0.059c0.031-0.029,0.042-0.084,0.042-0.116c0-0.039-0.006-0.067-0.021-0.102l-0.6-1.278
				c-0.041-0.086-0.129-0.139-0.217-0.139C47.535,65.304,47.509,65.308,47.485,65.317 M31.56,62.147l-1.241,0.477
				c-0.108,0.041-0.154,0.165-0.101,0.276l6.514,13.864c0.024,0.052,0.003,0.109-0.047,0.129l-1.241,0.476
				c-0.108,0.042-0.154,0.166-0.102,0.277l0.6,1.278c0.053,0.11,0.183,0.167,0.291,0.126l1.241-0.476
				c0.051-0.02,0.11,0.006,0.134,0.058l0.602,1.279c0.052,0.111,0.182,0.168,0.29,0.127l1.242-0.477
				c0.108-0.042,0.153-0.166,0.101-0.276l-7.992-17.012c-0.041-0.086-0.128-0.14-0.216-0.14
				C31.608,62.133,31.583,62.138,31.56,62.147 M36.146,60.384l-1.242,0.478c-0.108,0.041-0.153,0.164-0.101,0.276l6.514,13.865
				c0.052,0.112,0.183,0.168,0.29,0.126l1.242-0.476c0.108-0.041,0.153-0.165,0.101-0.277l-2.818-5.999
				c-0.024-0.051-0.004-0.109,0.047-0.128l2.768-1.063c0.108-0.042,0.154-0.165,0.102-0.276l-0.6-1.278
				c-0.053-0.111-0.184-0.168-0.291-0.127l-2.769,1.063c-0.05,0.019-0.11-0.007-0.134-0.058l-2.819-6
				c-0.041-0.086-0.128-0.139-0.216-0.139C36.194,60.371,36.169,60.375,36.146,60.384 M33.878,59.398l-2.77,1.063
				c-0.108,0.041-0.153,0.166-0.1,0.276l0.6,1.278c0.052,0.112,0.183,0.169,0.291,0.127l2.768-1.063
				c0.108-0.041,0.154-0.165,0.101-0.277l-0.6-1.277c-0.04-0.087-0.128-0.14-0.216-0.14C33.927,59.385,33.902,59.389,33.878,59.398"
				/>
		</defs>
		<clipPath id="SVGID_63_">
			<use xlink:href="#SVGID_62_"  overflow="visible"/>
		</clipPath>
		<g opacity="0.6" clip-path="url(#SVGID_63_)">
			<g>
				<defs>
					<rect id="SVGID_64_" x="20.515" y="54.899" width="39.202" height="33.752"/>
				</defs>
				<clipPath id="SVGID_65_">
					<use xlink:href="#SVGID_64_"  overflow="visible"/>
				</clipPath>
				<g clip-path="url(#SVGID_65_)">
					<defs>
						<path id="SVGID_66_" d="M58.043,60.372c4.37,6.871-0.114,17.546-10.015,23.843c-9.901,6.298-21.471,5.833-25.841-1.037
							c-4.37-6.871,0.114-17.546,10.015-23.843C42.104,53.037,53.673,53.501,58.043,60.372"/>
					</defs>
					<clipPath id="SVGID_67_">
						<use xlink:href="#SVGID_66_"  overflow="visible"/>
					</clipPath>
					
						<linearGradient id="SVGID_68_" gradientUnits="userSpaceOnUse" x1="-161.6841" y1="565.9951" x2="-160.6841" y2="565.9951" gradientTransform="matrix(24.8725 17.9228 17.9228 -24.8725 -6095.5776 17037.9688)">
						<stop  offset="0" style="stop-color:#000000"/>
						<stop  offset="0.3034" style="stop-color:#3A3332"/>
						<stop  offset="0.6444" style="stop-color:#8B8483"/>
						<stop  offset="0.8847" style="stop-color:#CBC9C8"/>
						<stop  offset="1" style="stop-color:#E7E7E7"/>
					</linearGradient>
					<polygon clip-path="url(#SVGID_67_)" fill="url(#SVGID_68_)" points="33.06,31.885 80.188,65.846 47.171,111.665 0.042,77.705 
											"/>
				</g>
			</g>
		</g>
	</g>
	<g>
		<defs>
			<path id="SVGID_69_" d="M43.388,87.322l-1.242,0.476c-0.107,0.042-0.153,0.166-0.101,0.277l1.339,2.849
				c0.052,0.112,0.182,0.168,0.29,0.126l1.242-0.476c0.108-0.041,0.153-0.165,0.101-0.277l-1.339-2.849
				c-0.041-0.087-0.128-0.14-0.216-0.14C43.437,87.308,43.412,87.312,43.388,87.322 M40.382,84.764l-1.242,0.477
				c-0.108,0.041-0.153,0.165-0.101,0.276l1.339,2.849c0.052,0.112,0.182,0.168,0.29,0.126l1.241-0.476
				c0.108-0.041,0.154-0.165,0.102-0.276l-1.339-2.849c-0.04-0.087-0.128-0.141-0.216-0.141
				C40.432,84.75,40.407,84.755,40.382,84.764 M60.151,84.598l-1.242,0.477c-0.108,0.042-0.153,0.165-0.101,0.276l1.341,2.853
				c0.023,0.052,0.002,0.109-0.048,0.129l-11.94,4.584c-0.051,0.019-0.111-0.007-0.135-0.059l-1.34-2.854
				c-0.053-0.11-0.183-0.167-0.291-0.126l-1.242,0.477c-0.107,0.042-0.153,0.165-0.101,0.277l2.079,4.425
				c0.052,0.112,0.183,0.168,0.291,0.127l14.998-5.757c0.107-0.042,0.153-0.166,0.1-0.277l-2.08-4.426
				c-0.04-0.086-0.128-0.139-0.215-0.139C60.201,84.585,60.175,84.589,60.151,84.598 M37.377,82.207l-1.242,0.476
				c-0.108,0.041-0.153,0.166-0.101,0.276l1.338,2.85c0.053,0.111,0.183,0.168,0.291,0.127l1.241-0.478
				c0.108-0.041,0.154-0.165,0.102-0.276l-1.339-2.849c-0.041-0.087-0.128-0.14-0.216-0.14
				C37.426,82.193,37.401,82.198,37.377,82.207 M35.106,81.211l-1.242,0.477c-0.108,0.042-0.153,0.165-0.101,0.277l0.601,1.277
				c0.052,0.111,0.183,0.168,0.29,0.127l1.242-0.477c0.108-0.042,0.153-0.165,0.1-0.277l-0.6-1.277
				c-0.041-0.087-0.129-0.14-0.216-0.14C35.155,81.198,35.13,81.202,35.106,81.211 M59.461,79.291l-1.242,0.477
				c-0.108,0.041-0.154,0.164-0.101,0.276l2.079,4.425c0.053,0.112,0.182,0.169,0.29,0.127l1.242-0.477
				c0.108-0.041,0.154-0.164,0.101-0.276l-2.079-4.426c-0.041-0.086-0.129-0.14-0.216-0.14
				C59.51,79.277,59.485,79.282,59.461,79.291 M34.417,75.906l-4.297,1.649c-0.108,0.041-0.154,0.165-0.101,0.276l2.079,4.426
				c0.052,0.111,0.182,0.168,0.29,0.126l1.242-0.476c0.108-0.041,0.153-0.166,0.101-0.277l-1.34-2.853
				c-0.024-0.051-0.004-0.109,0.047-0.129l2.768-1.063c0.108-0.041,0.154-0.164,0.102-0.276l-0.6-1.278
				c-0.041-0.086-0.129-0.139-0.216-0.139C34.465,75.892,34.44,75.897,34.417,75.906 M55.814,67.691l-1.242,0.476
				c-0.108,0.041-0.153,0.165-0.1,0.276l5.035,10.72c0.052,0.111,0.183,0.167,0.291,0.126l1.241-0.477
				c0.108-0.041,0.154-0.166,0.102-0.276l-5.037-10.719c-0.04-0.087-0.128-0.14-0.215-0.14
				C55.863,67.677,55.838,67.681,55.814,67.691 M53.546,66.703l-1.241,0.476c-0.108,0.041-0.153,0.165-0.101,0.277l0.6,1.277
				c0.052,0.111,0.183,0.167,0.291,0.126l1.241-0.476c0.108-0.042,0.153-0.167,0.101-0.277l-0.6-1.278
				c-0.04-0.086-0.128-0.139-0.216-0.139C53.597,66.689,53.571,66.693,53.546,66.703 M51.28,65.717l-2.767,1.062
				c-0.131,0.049-0.158,0.16-0.11,0.263l2.825,6.013c0.052,0.11,0.183,0.167,0.291,0.126l1.241-0.476
				c0.108-0.042,0.153-0.166,0.102-0.277l-2.08-4.426c-0.025-0.052-0.003-0.11,0.046-0.129l1.241-0.476
				c0.108-0.041,0.153-0.165,0.101-0.276l-0.6-1.278c-0.041-0.087-0.128-0.14-0.215-0.14C51.331,65.703,51.305,65.708,51.28,65.717
				 M47.485,65.317l-4.297,1.649c-0.108,0.042-0.154,0.167-0.101,0.277l2.818,5.999c0.052,0.111,0.182,0.167,0.29,0.126l1.242-0.476
				c0.108-0.042,0.153-0.166,0.101-0.277l-2.079-4.427c-0.024-0.05-0.004-0.109,0.047-0.127l2.768-1.063
				c0.034-0.013,0.06-0.034,0.081-0.059c0.031-0.029,0.042-0.084,0.042-0.116c0-0.039-0.006-0.067-0.021-0.102l-0.6-1.278
				c-0.041-0.086-0.129-0.139-0.217-0.139C47.535,65.304,47.509,65.308,47.485,65.317 M31.56,62.147l-1.241,0.477
				c-0.108,0.041-0.154,0.165-0.101,0.276l6.514,13.864c0.024,0.052,0.003,0.109-0.047,0.129l-1.241,0.476
				c-0.108,0.042-0.154,0.166-0.102,0.277l0.6,1.278c0.053,0.11,0.183,0.167,0.291,0.126l1.241-0.476
				c0.051-0.02,0.11,0.006,0.134,0.058l0.602,1.279c0.052,0.111,0.182,0.168,0.29,0.127l1.242-0.477
				c0.108-0.042,0.153-0.166,0.101-0.276l-7.992-17.012c-0.041-0.086-0.128-0.14-0.216-0.14
				C31.608,62.133,31.583,62.138,31.56,62.147 M36.146,60.384l-1.242,0.478c-0.108,0.041-0.153,0.164-0.101,0.276l6.514,13.865
				c0.052,0.112,0.183,0.168,0.29,0.126l1.242-0.476c0.108-0.041,0.153-0.165,0.101-0.277l-2.818-5.999
				c-0.024-0.051-0.004-0.109,0.047-0.128l2.768-1.063c0.108-0.042,0.154-0.165,0.102-0.276l-0.6-1.278
				c-0.053-0.111-0.184-0.168-0.291-0.127l-2.769,1.063c-0.05,0.019-0.11-0.007-0.134-0.058l-2.819-6
				c-0.041-0.086-0.128-0.139-0.216-0.139C36.194,60.371,36.169,60.375,36.146,60.384 M33.878,59.398l-2.77,1.063
				c-0.108,0.041-0.153,0.166-0.1,0.276l0.6,1.278c0.052,0.112,0.183,0.169,0.291,0.127l2.768-1.063
				c0.108-0.041,0.154-0.165,0.101-0.277l-0.6-1.277c-0.04-0.087-0.128-0.14-0.216-0.14C33.927,59.385,33.902,59.389,33.878,59.398"
				/>
		</defs>
		<clipPath id="SVGID_70_">
			<use xlink:href="#SVGID_69_"  overflow="visible"/>
		</clipPath>
		<g opacity="0.6" clip-path="url(#SVGID_70_)">
			<g>
				<defs>
					<rect id="SVGID_71_" x="46.173" y="74.63" width="26.597" height="25.99"/>
				</defs>
				<clipPath id="SVGID_72_">
					<use xlink:href="#SVGID_71_"  overflow="visible"/>
				</clipPath>
				<g clip-path="url(#SVGID_72_)">
					<defs>
						<path id="SVGID_73_" d="M46.173,87.625c0,7.177,5.954,12.995,13.298,12.995c7.345,0,13.299-5.818,13.299-12.995
							S66.816,74.63,59.472,74.63C52.127,74.63,46.173,80.448,46.173,87.625"/>
					</defs>
					<clipPath id="SVGID_74_">
						<use xlink:href="#SVGID_73_"  overflow="visible"/>
					</clipPath>
					
						<radialGradient id="SVGID_75_" cx="-161.647" cy="566.0195" r="0.9999" gradientTransform="matrix(12.7729 0 0 -13.5771 2124.1741 7772.5293)" gradientUnits="userSpaceOnUse">
						<stop  offset="0" style="stop-color:#F4F3F3"/>
						<stop  offset="0.9152" style="stop-color:#0E0C0C"/>
						<stop  offset="1" style="stop-color:#000000"/>
					</radialGradient>
					<rect x="46.173" y="74.63" clip-path="url(#SVGID_74_)" fill="url(#SVGID_75_)" width="26.597" height="25.99"/>
				</g>
			</g>
		</g>
	</g>
</g>
<rect id="_x3C_Tranche_x3E_" x="-0.667" y="1" fill="none" width="269" height="98"/>
</svg>
